M48
;Layer_Color=9474304
;FILE_FORMAT=2:4
INCH,LZ
;TYPE=PLATED
T1F00S00C0.0118
T2F00S00C0.0157
T3F00S00C0.0236
T4F00S00C0.0315
T5F00S00C0.0354
T6F00S00C0.0400
T7F00S00C0.0402
T8F00S00C0.0433
T9F00S00C0.0551
T11F00S00C0.0709
%
T01
X024063Y046248
X032263Y053448
X026363Y052848
X025163Y052448
X025363Y049448
X025963Y047248
X024863Y047048
X020863Y057848
X018263Y056948
T02
X025863Y040848
Y044648
X037209Y055703
X02658Y049451
X024163Y049448
X022063Y048548
T03
X037655Y044648
X041671
X042537Y045908
Y049924
T04
X012563Y036048
Y036842
Y037635
X014263Y041948
X034445Y048602
X035445
X036445
T05
X031862Y051298
X032862
X035717Y051362
X036717
X037717
X038717
X039717
X040717
X041717
X042717
Y061362
X041717
X040717
X039717
X038717
X037717
X036717
X035717
X032855Y061243
X031855
X030855
X029855
X028855
X027855
X026855
X025855
X024855
X023855
X022855
X021855
X020855
X019855
X018855
X017855
X016855
X015855
X015862Y051298
X016862
X017862
X018862
X019862
X020862
X021862
X022862
X023862
X024862
X025862
X026862
X027862
X028862
X029862
X030862
X028363Y053748
X027363
X027663Y058648
X028663
X026663
X025663
X014862Y061243
Y051298
X021363Y064848
X022363
X023363
X026963
X027963
X028963
X029963
X032563
X033563
X034563
X035563
T06
X040989Y046016
Y047016
T07
X022663Y052948
Y053948
Y054948
T08
X027463Y055748
T09
X012555Y03519
Y038525
T11
X014272Y03209
Y039807
X042854Y039767
Y03213
M30
