G04*
G04 #@! TF.GenerationSoftware,Altium Limited,Altium Designer,21.9.2 (33)*
G04*
G04 Layer_Color=8421504*
%FSTAX24Y24*%
%MOIN*%
G70*
G04*
G04 #@! TF.SameCoordinates,6E6F4FCF-DDBA-4186-BE1C-5EC4A7FB59E6*
G04*
G04*
G04 #@! TF.FilePolarity,Positive*
G04*
G01*
G75*
%ADD21R,0.0433X0.1024*%
%ADD22R,0.0551X0.0472*%
%ADD23R,0.0177X0.0236*%
%ADD24R,0.0157X0.0236*%
%ADD25R,0.0500X0.0550*%
%ADD26R,0.0472X0.0551*%
%ADD27R,0.0669X0.0669*%
%ADD28R,0.0984X0.0669*%
%ADD29R,0.0236X0.0197*%
G04:AMPARAMS|DCode=30|XSize=287.4mil|YSize=157.5mil|CornerRadius=0mil|HoleSize=0mil|Usage=FLASHONLY|Rotation=270.000|XOffset=0mil|YOffset=0mil|HoleType=Round|Shape=Octagon|*
%AMOCTAGOND30*
4,1,8,-0.0394,-0.1437,0.0394,-0.1437,0.0787,-0.1043,0.0787,0.1043,0.0394,0.1437,-0.0394,0.1437,-0.0787,0.1043,-0.0787,-0.1043,-0.0394,-0.1437,0.0*
%
%ADD30OCTAGOND30*%

%ADD31R,0.0197X0.0394*%
D21*
X041619Y059528D02*
D03*
X040832D02*
D03*
X040044D02*
D03*
X039257D02*
D03*
X038469D02*
D03*
X037682D02*
D03*
X036895D02*
D03*
X036107D02*
D03*
Y053505D02*
D03*
X036895D02*
D03*
X037682D02*
D03*
X038469D02*
D03*
X039257D02*
D03*
X040044D02*
D03*
X040832D02*
D03*
X041619D02*
D03*
D22*
X034044Y058337D02*
D03*
Y057589D02*
D03*
X034052Y055081D02*
D03*
Y055829D02*
D03*
X021092Y045137D02*
D03*
Y045885D02*
D03*
X017079Y045139D02*
D03*
Y045887D02*
D03*
X040965Y049079D02*
D03*
Y048331D02*
D03*
X031924Y048544D02*
D03*
Y049292D02*
D03*
X022057Y04678D02*
D03*
Y047528D02*
D03*
X02335Y048549D02*
D03*
Y049297D02*
D03*
X023371Y047532D02*
D03*
Y046784D02*
D03*
X023366Y045655D02*
D03*
Y044907D02*
D03*
D23*
X024989Y048806D02*
D03*
X025363D02*
D03*
X025737D02*
D03*
Y047724D02*
D03*
X025363D02*
D03*
X024989D02*
D03*
D24*
X024989Y045409D02*
D03*
X025363D02*
D03*
X025737D02*
D03*
Y046519D02*
D03*
X025363D02*
D03*
X024989D02*
D03*
D25*
X017634Y04951D02*
D03*
X018534D02*
D03*
X019685D02*
D03*
X020585D02*
D03*
D26*
X018448Y048397D02*
D03*
X0177D02*
D03*
X020496Y048395D02*
D03*
X019748D02*
D03*
D27*
X039122Y047887D02*
D03*
Y049186D02*
D03*
X02752Y048173D02*
D03*
Y049472D02*
D03*
D28*
X0345Y045892D02*
D03*
X036075D02*
D03*
D29*
X030222Y048614D02*
D03*
Y048988D02*
D03*
Y049362D02*
D03*
X029041Y048614D02*
D03*
Y048988D02*
D03*
Y049362D02*
D03*
D30*
X031699Y04609D02*
D03*
X029199D02*
D03*
D31*
X018436Y04743D02*
D03*
X018936D02*
D03*
X019436D02*
D03*
X019936D02*
D03*
Y045028D02*
D03*
X019436D02*
D03*
X018936D02*
D03*
X018436D02*
D03*
M02*
