G04*
G04 #@! TF.GenerationSoftware,Altium Limited,Altium Designer,21.9.2 (33)*
G04*
G04 Layer_Physical_Order=1*
G04 Layer_Color=255*
%FSTAX24Y24*%
%MOIN*%
G70*
G04*
G04 #@! TF.SameCoordinates,6E6F4FCF-DDBA-4186-BE1C-5EC4A7FB59E6*
G04*
G04*
G04 #@! TF.FilePolarity,Positive*
G04*
G01*
G75*
%ADD17C,0.0197*%
%ADD21R,0.0433X0.1024*%
%ADD22R,0.0551X0.0472*%
%ADD23R,0.0177X0.0236*%
%ADD24R,0.0157X0.0236*%
%ADD25R,0.0500X0.0550*%
%ADD26R,0.0472X0.0551*%
%ADD27R,0.0669X0.0669*%
%ADD28R,0.0984X0.0669*%
%ADD29R,0.0236X0.0197*%
G04:AMPARAMS|DCode=30|XSize=287.4mil|YSize=157.5mil|CornerRadius=0mil|HoleSize=0mil|Usage=FLASHONLY|Rotation=270.000|XOffset=0mil|YOffset=0mil|HoleType=Round|Shape=Octagon|*
%AMOCTAGOND30*
4,1,8,-0.0394,-0.1437,0.0394,-0.1437,0.0787,-0.1043,0.0787,0.1043,0.0394,0.1437,-0.0394,0.1437,-0.0787,0.1043,-0.0787,-0.1043,-0.0394,-0.1437,0.0*
%
%ADD30OCTAGOND30*%

%ADD31R,0.0197X0.0394*%
%ADD62C,0.0394*%
%ADD63C,0.0551*%
%ADD64C,0.0630*%
%ADD65C,0.0600*%
%ADD66R,0.1181X0.1181*%
%ADD67C,0.0748*%
%ADD68O,0.0709X0.0787*%
%ADD69O,0.0630X0.0787*%
%ADD70C,0.0591*%
%ADD71R,0.0591X0.0591*%
%ADD72R,0.0630X0.0630*%
%ADD73C,0.0598*%
%ADD74R,0.0598X0.0598*%
%ADD75P,0.0704X8X292.5*%
%ADD76C,0.0650*%
%ADD77R,0.1600X0.1000*%
%ADD78R,0.1000X0.1600*%
%ADD79C,0.0315*%
%ADD80C,0.0236*%
G36*
X036063Y066147D02*
X036063Y066147D01*
X036173Y066128D01*
X036238Y066101D01*
X03631Y066046D01*
X036366Y065973D01*
X036393Y065909D01*
X036412Y065798D01*
X036412Y065798D01*
X036412Y06568D01*
Y063967D01*
X036411Y063848D01*
X036427Y063644D01*
X036475Y063444D01*
X036553Y063254D01*
X036661Y063079D01*
X036794Y062923D01*
X036793Y062922D01*
X036793Y062922D01*
X036793Y062922D01*
X036881Y062848D01*
X036881Y062848D01*
X036948Y062792D01*
X03712Y062686D01*
X037306Y062609D01*
X037409Y062584D01*
X037395Y062466D01*
X033085D01*
X033003Y062455D01*
X032926Y062424D01*
X032861Y062373D01*
X03263Y062142D01*
X032579Y062077D01*
X032548Y062D01*
X032537Y061918D01*
Y061634D01*
X032518Y061619D01*
X032442Y061521D01*
X032419Y061464D01*
X032291D01*
X032267Y061521D01*
X032192Y061619D01*
X032093Y061695D01*
X031978Y061743D01*
X031855Y061759D01*
X031731Y061743D01*
X031616Y061695D01*
X031518Y061619D01*
X031442Y061521D01*
X031419Y061464D01*
X031291D01*
X031267Y061521D01*
X031192Y061619D01*
X031093Y061695D01*
X030978Y061743D01*
X030855Y061759D01*
X030731Y061743D01*
X030616Y061695D01*
X030518Y061619D01*
X030442Y061521D01*
X030419Y061464D01*
X030291D01*
X030267Y061521D01*
X030192Y061619D01*
X030093Y061695D01*
X029978Y061743D01*
X029855Y061759D01*
X029731Y061743D01*
X029616Y061695D01*
X029518Y061619D01*
X029442Y061521D01*
X029419Y061464D01*
X029291D01*
X029267Y061521D01*
X029192Y061619D01*
X029093Y061695D01*
X028978Y061743D01*
X028855Y061759D01*
X028731Y061743D01*
X028616Y061695D01*
X028518Y061619D01*
X028442Y061521D01*
X028419Y061464D01*
X028291D01*
X028267Y061521D01*
X028192Y061619D01*
X028093Y061695D01*
X027978Y061743D01*
X027855Y061759D01*
X027731Y061743D01*
X027616Y061695D01*
X027518Y061619D01*
X027442Y061521D01*
X027419Y061464D01*
X027291D01*
X027267Y061521D01*
X027192Y061619D01*
X027093Y061695D01*
X026978Y061743D01*
X026855Y061759D01*
X026731Y061743D01*
X026616Y061695D01*
X026518Y061619D01*
X026442Y061521D01*
X026419Y061464D01*
X026291D01*
X026267Y061521D01*
X026192Y061619D01*
X026093Y061695D01*
X025978Y061743D01*
X025855Y061759D01*
X025731Y061743D01*
X025616Y061695D01*
X025518Y061619D01*
X025442Y061521D01*
X025419Y061464D01*
X025291D01*
X025267Y061521D01*
X025192Y061619D01*
X025093Y061695D01*
X024978Y061743D01*
X024855Y061759D01*
X024731Y061743D01*
X024616Y061695D01*
X024518Y061619D01*
X024442Y061521D01*
X024419Y061464D01*
X024291D01*
X024267Y061521D01*
X024192Y061619D01*
X024093Y061695D01*
X024075Y061702D01*
Y061849D01*
X025554Y063328D01*
X034963D01*
X035047Y063344D01*
X035119Y063392D01*
X035719Y063992D01*
X035767Y064064D01*
X035784Y064148D01*
Y064408D01*
X035865Y064455D01*
X035957Y064546D01*
X036022Y064658D01*
X036055Y064784D01*
Y064913D01*
X036022Y065038D01*
X035957Y065151D01*
X035865Y065242D01*
X035753Y065307D01*
X035628Y065341D01*
X035498D01*
X035373Y065307D01*
X035261Y065242D01*
X035169Y065151D01*
X035128Y065079D01*
X035122Y065077D01*
X035004D01*
X034998Y065079D01*
X034957Y065151D01*
X034865Y065242D01*
X034753Y065307D01*
X034628Y065341D01*
X034498D01*
X034373Y065307D01*
X034261Y065242D01*
X034169Y065151D01*
X034104Y065038D01*
X034071Y064913D01*
Y064784D01*
X034104Y064658D01*
X034169Y064546D01*
X034261Y064455D01*
X034373Y06439D01*
X034498Y064356D01*
X034628D01*
X034753Y06439D01*
X034865Y064455D01*
X034957Y064546D01*
X034998Y064618D01*
X035004Y06462D01*
X035122D01*
X035128Y064618D01*
X035169Y064546D01*
X035261Y064455D01*
X035342Y064408D01*
Y06424D01*
X034872Y063769D01*
X025463D01*
X025378Y063752D01*
X025307Y063705D01*
X023698Y062096D01*
X023651Y062025D01*
X023634Y06194D01*
Y061702D01*
X023616Y061695D01*
X023518Y061619D01*
X023442Y061521D01*
X023419Y061464D01*
X023291D01*
X023267Y061521D01*
X023192Y061619D01*
X023093Y061695D01*
X023075Y061702D01*
Y061857D01*
X023065Y061907D01*
Y061939D01*
X025754Y064628D01*
X026522D01*
X026569Y064546D01*
X026661Y064455D01*
X026773Y06439D01*
X026898Y064356D01*
X027028D01*
X027153Y06439D01*
X027265Y064455D01*
X027357Y064546D01*
X027422Y064658D01*
X027455Y064784D01*
Y064913D01*
X027422Y065038D01*
X027357Y065151D01*
X027265Y065242D01*
X027153Y065307D01*
X027028Y065341D01*
X026898D01*
X026773Y065307D01*
X026661Y065242D01*
X026569Y065151D01*
X026522Y065069D01*
X025663D01*
X025579Y065052D01*
X025507Y065005D01*
X022688Y062186D01*
X022641Y062114D01*
X022624Y06203D01*
Y061867D01*
X022634Y061816D01*
Y061702D01*
X022616Y061695D01*
X022518Y061619D01*
X022442Y061521D01*
X022419Y061464D01*
X022291D01*
X022267Y061521D01*
X022192Y061619D01*
X022093Y061695D01*
X021978Y061743D01*
X021855Y061759D01*
X021731Y061743D01*
X021616Y061695D01*
X021518Y061619D01*
X021442Y061521D01*
X021419Y061464D01*
X021291D01*
X021267Y061521D01*
X021192Y061619D01*
X021093Y061695D01*
X020978Y061743D01*
X020855Y061759D01*
X020731Y061743D01*
X020616Y061695D01*
X020518Y061619D01*
X020442Y061521D01*
X020394Y061406D01*
X020378Y061282D01*
Y061204D01*
X020394Y06108D01*
X020442Y060965D01*
X020518Y060867D01*
X020616Y060791D01*
X020731Y060743D01*
X020855Y060727D01*
X020978Y060743D01*
X021093Y060791D01*
X021192Y060867D01*
X021267Y060965D01*
X021291Y061022D01*
X021419D01*
X021442Y060965D01*
X021518Y060867D01*
X021616Y060791D01*
X021731Y060743D01*
X021855Y060727D01*
X021978Y060743D01*
X022093Y060791D01*
X022192Y060867D01*
X022267Y060965D01*
X022291Y061022D01*
X022419D01*
X022442Y060965D01*
X022518Y060867D01*
X022616Y060791D01*
X022731Y060743D01*
X022855Y060727D01*
X022978Y060743D01*
X023093Y060791D01*
X023192Y060867D01*
X023267Y060965D01*
X023291Y061022D01*
X023419D01*
X023442Y060965D01*
X023518Y060867D01*
X023616Y060791D01*
X023731Y060743D01*
X023855Y060727D01*
X023978Y060743D01*
X024093Y060791D01*
X024192Y060867D01*
X024267Y060965D01*
X024291Y061022D01*
X024419D01*
X024442Y060965D01*
X024518Y060867D01*
X024616Y060791D01*
X024731Y060743D01*
X024855Y060727D01*
X024978Y060743D01*
X025093Y060791D01*
X025192Y060867D01*
X025267Y060965D01*
X025274Y060981D01*
X0254Y060989D01*
X025451Y060917D01*
X025442Y060873D01*
Y059062D01*
X02525D01*
Y058235D01*
X026076D01*
Y059062D01*
X025884D01*
Y060731D01*
X025978Y060743D01*
X026093Y060791D01*
X026192Y060867D01*
X026267Y060965D01*
X026274Y060981D01*
X0264Y060989D01*
X026451Y060917D01*
X026442Y060873D01*
Y058998D01*
X026409Y058979D01*
X026332Y058902D01*
X026278Y058808D01*
X02625Y058703D01*
Y058594D01*
X026278Y058489D01*
X026332Y058395D01*
X026409Y058318D01*
X026503Y058263D01*
X026609Y058235D01*
X026717D01*
X026823Y058263D01*
X026917Y058318D01*
X026994Y058395D01*
X027048Y058489D01*
X027076Y058594D01*
Y058703D01*
X027048Y058808D01*
X026994Y058902D01*
X026917Y058979D01*
X026884Y058998D01*
Y060731D01*
X026978Y060743D01*
X027093Y060791D01*
X027192Y060867D01*
X027267Y060965D01*
X027274Y060981D01*
X0274Y060989D01*
X027451Y060917D01*
X027442Y060873D01*
Y058998D01*
X027409Y058979D01*
X027332Y058902D01*
X027278Y058808D01*
X02725Y058703D01*
Y058594D01*
X027278Y058489D01*
X027332Y058395D01*
X027409Y058318D01*
X027503Y058263D01*
X027609Y058235D01*
X027717D01*
X027823Y058263D01*
X027917Y058318D01*
X027994Y058395D01*
X028048Y058489D01*
X028076Y058594D01*
Y058703D01*
X028048Y058808D01*
X027994Y058902D01*
X027917Y058979D01*
X027884Y058998D01*
Y060731D01*
X027978Y060743D01*
X028093Y060791D01*
X028192Y060867D01*
X028267Y060965D01*
X028274Y060981D01*
X0284Y060989D01*
X028451Y060917D01*
X028442Y060873D01*
Y058998D01*
X028409Y058979D01*
X028332Y058902D01*
X028278Y058808D01*
X02825Y058703D01*
Y058594D01*
X028278Y058489D01*
X028332Y058395D01*
X028409Y058318D01*
X028503Y058263D01*
X028609Y058235D01*
X028717D01*
X028823Y058263D01*
X028917Y058318D01*
X028994Y058395D01*
X029048Y058489D01*
X029076Y058594D01*
Y058703D01*
X029048Y058808D01*
X028994Y058902D01*
X028917Y058979D01*
X028884Y058998D01*
Y060731D01*
X028978Y060743D01*
X029093Y060791D01*
X029192Y060867D01*
X029267Y060965D01*
X029291Y061022D01*
X029419D01*
X029442Y060965D01*
X029518Y060867D01*
X029616Y060791D01*
X029731Y060743D01*
X029855Y060727D01*
X029978Y060743D01*
X030093Y060791D01*
X030192Y060867D01*
X030267Y060965D01*
X030291Y061022D01*
X030419D01*
X030442Y060965D01*
X030518Y060867D01*
X030616Y060791D01*
X030731Y060743D01*
X030855Y060727D01*
X030978Y060743D01*
X031093Y060791D01*
X031192Y060867D01*
X031267Y060965D01*
X031291Y061022D01*
X031419D01*
X031442Y060965D01*
X031518Y060867D01*
X031616Y060791D01*
X031731Y060743D01*
X031855Y060727D01*
X031978Y060743D01*
X032093Y060791D01*
X032192Y060867D01*
X032267Y060965D01*
X032291Y061022D01*
X032419D01*
X032442Y060965D01*
X032518Y060867D01*
X032616Y060791D01*
X032731Y060743D01*
X032855Y060727D01*
X032978Y060743D01*
X033093Y060791D01*
X033192Y060867D01*
X033267Y060965D01*
X033315Y06108D01*
X033331Y061204D01*
Y061282D01*
X033315Y061406D01*
X033267Y061521D01*
X033192Y061619D01*
X033172Y061634D01*
Y061786D01*
X033217Y061831D01*
X035427D01*
X035458Y061713D01*
X035451Y061708D01*
X03537Y061628D01*
X035313Y061529D01*
X035284Y061419D01*
Y061305D01*
X035313Y061195D01*
X03537Y061096D01*
X035451Y061015D01*
X03555Y060958D01*
X03566Y060929D01*
X035755D01*
X035886Y060798D01*
Y060158D01*
X035773D01*
Y058898D01*
X036442D01*
Y060158D01*
X036328D01*
Y060889D01*
X036311Y060974D01*
X036314Y060985D01*
X036443Y061023D01*
X036451Y061015D01*
X03655Y060958D01*
X03666Y060929D01*
X036686D01*
Y060158D01*
X03656D01*
Y058898D01*
X037229D01*
Y060158D01*
X037127D01*
Y061055D01*
X03711Y061139D01*
X037099Y061157D01*
X03712Y061195D01*
X03715Y061305D01*
Y061419D01*
X03712Y061529D01*
X037063Y061628D01*
X036983Y061708D01*
X036975Y061713D01*
X037007Y061831D01*
X037427D01*
X037458Y061713D01*
X037451Y061708D01*
X03737Y061628D01*
X037313Y061529D01*
X037284Y061419D01*
Y061305D01*
X037313Y061195D01*
X03737Y061096D01*
X037451Y061015D01*
X037479Y060999D01*
Y060158D01*
X037347D01*
Y058898D01*
X038017D01*
Y060158D01*
X03792D01*
Y060979D01*
X037983Y061015D01*
X038063Y061096D01*
X03812Y061195D01*
X03815Y061305D01*
Y061419D01*
X03812Y061529D01*
X038063Y061628D01*
X037983Y061708D01*
X037975Y061713D01*
X038007Y061831D01*
X038427D01*
X038458Y061713D01*
X038451Y061708D01*
X03837Y061628D01*
X038313Y061529D01*
X038284Y061419D01*
Y061305D01*
X03831Y061207D01*
X038307Y061205D01*
X038259Y061133D01*
X038242Y061048D01*
Y060255D01*
X03816Y060158D01*
X038135D01*
Y058898D01*
X038804D01*
Y060158D01*
X03869D01*
Y060248D01*
X038684Y060281D01*
Y060929D01*
X038774D01*
X038884Y060958D01*
X038932Y060986D01*
X039038Y060911D01*
X039036Y060902D01*
Y060158D01*
X038922D01*
Y058898D01*
X039591D01*
Y060158D01*
X039478D01*
Y06081D01*
X039609Y060942D01*
X03966Y060929D01*
X039774D01*
X039821Y060941D01*
X039841Y060923D01*
X039889Y060837D01*
X039859Y060793D01*
X039842Y060708D01*
Y060158D01*
X03971D01*
Y058898D01*
X039842D01*
Y056969D01*
X034273D01*
Y057234D01*
X034437D01*
Y057943D01*
X03365D01*
Y057234D01*
X033831D01*
Y056748D01*
Y056183D01*
X033658D01*
Y055475D01*
X034446D01*
Y056183D01*
X034273D01*
Y056528D01*
X040063D01*
X040147Y056544D01*
X040219Y056592D01*
X040267Y056664D01*
X040284Y056748D01*
Y058898D01*
X040379D01*
Y060158D01*
X040284D01*
Y060617D01*
X040609Y060942D01*
X04066Y060929D01*
X040774D01*
X040884Y060958D01*
X040983Y061015D01*
X041063Y061096D01*
X04112Y061195D01*
X04115Y061305D01*
Y061419D01*
X04112Y061529D01*
X041063Y061628D01*
X041034Y061657D01*
Y061918D01*
X041024Y062D01*
X040992Y062077D01*
X040941Y062142D01*
X040711Y062373D01*
X040645Y062424D01*
X040632Y062429D01*
X040655Y062547D01*
X043513D01*
X043513Y062547D01*
X043513Y062547D01*
X043625Y062532D01*
X043713Y062495D01*
X043796Y062431D01*
X04386Y062348D01*
X043896Y06226D01*
X043912Y062148D01*
X043912Y062148D01*
X043912Y06203D01*
Y028298D01*
X043912Y028298D01*
X043912Y028298D01*
X043896Y028187D01*
X04386Y028098D01*
X043796Y028015D01*
X043713Y027952D01*
X043617Y027912D01*
X043518Y027899D01*
X043513Y0279D01*
X037776D01*
X037658Y027901D01*
X037658Y027901D01*
X037455Y027885D01*
X037257Y027837D01*
X037069Y027759D01*
X036895Y027653D01*
X03683Y027597D01*
X036741Y027521D01*
X036741Y027521D01*
X036741Y02752D01*
X036626Y027386D01*
X036534Y027235D01*
X036466Y027072D01*
X036425Y0269D01*
X036411Y026724D01*
X036412D01*
X036412Y026724D01*
Y024698D01*
X036412Y024698D01*
X036412Y024698D01*
X036396Y024587D01*
X03636Y024498D01*
X036296Y024415D01*
X036213Y024352D01*
X036117Y024312D01*
X036018Y024299D01*
X036013Y0243D01*
X019913D01*
X019913Y0243D01*
X019913Y0243D01*
X019913Y0243D01*
X019801Y024315D01*
X019713Y024352D01*
X01963Y024415D01*
X019566Y024498D01*
X01953Y024587D01*
X019514Y024698D01*
X019514Y024817D01*
Y02638D01*
X019515Y026498D01*
X019499Y026703D01*
X019451Y026903D01*
X019373Y027093D01*
X019265Y027268D01*
X019132Y027424D01*
X019132D01*
X019048Y027508D01*
X019039Y027517D01*
X019039Y027517D01*
X018883Y027651D01*
X018707Y027758D01*
X018518Y027837D01*
X018318Y027885D01*
X018113Y027901D01*
Y0279D01*
X012413D01*
X012413Y0279D01*
X012413Y0279D01*
X012413Y0279D01*
X012301Y027915D01*
X012213Y027952D01*
X01213Y028015D01*
X012066Y028098D01*
X01203Y028187D01*
X012014Y028298D01*
X012014Y028417D01*
Y062148D01*
X012014Y062148D01*
X012014Y062148D01*
X01203Y06226D01*
X012066Y062348D01*
X01213Y062431D01*
X012213Y062495D01*
X012301Y062532D01*
X012413Y062547D01*
X012531Y062547D01*
X018221D01*
X018339Y062547D01*
X018515Y062561D01*
X018687Y062602D01*
X01885Y062669D01*
X019001Y062762D01*
X019135Y062876D01*
X019135Y062876D01*
X019135Y062876D01*
X019268Y063031D01*
X019374Y063204D01*
X019452Y063393D01*
X019495Y063574D01*
X019499Y06359D01*
X019507Y06369D01*
X019525Y063793D01*
Y063846D01*
X019515Y06387D01*
X019514Y063904D01*
Y065702D01*
X019516Y065798D01*
X019517Y0658D01*
X019525Y065818D01*
X019541Y065926D01*
X019542Y06593D01*
X01956Y065973D01*
X019616Y066046D01*
X019688Y066101D01*
X019753Y066128D01*
X019863Y066147D01*
X019981Y066147D01*
X036063D01*
X036063Y066147D01*
D02*
G37*
%LPC*%
G36*
X022428Y065341D02*
X022298D01*
X022173Y065307D01*
X022061Y065242D01*
X021969Y065151D01*
X021928Y065079D01*
X021922Y065077D01*
X021804D01*
X021798Y065079D01*
X021757Y065151D01*
X021665Y065242D01*
X021553Y065307D01*
X021428Y065341D01*
X021298D01*
X021173Y065307D01*
X021061Y065242D01*
X020969Y065151D01*
X020904Y065038D01*
X020871Y064913D01*
Y064784D01*
X020904Y064658D01*
X020969Y064546D01*
X021061Y064455D01*
X021173Y06439D01*
X021298Y064356D01*
X021428D01*
X021553Y06439D01*
X021665Y064455D01*
X021757Y064546D01*
X021798Y064618D01*
X021804Y06462D01*
X021922D01*
X021928Y064618D01*
X021969Y064546D01*
X022061Y064455D01*
X022142Y064408D01*
Y06404D01*
X021372Y063269D01*
X020163D01*
X020079Y063252D01*
X020007Y063205D01*
X018915Y062113D01*
X01889Y062096D01*
X018699Y061905D01*
X018651Y061833D01*
X018634Y061748D01*
Y061702D01*
X018616Y061695D01*
X018518Y061619D01*
X018442Y061521D01*
X018419Y061464D01*
X018291D01*
X018267Y061521D01*
X018192Y061619D01*
X018093Y061695D01*
X017978Y061743D01*
X017855Y061759D01*
X017731Y061743D01*
X017616Y061695D01*
X017518Y061619D01*
X017442Y061521D01*
X017419Y061464D01*
X017291D01*
X017267Y061521D01*
X017192Y061619D01*
X017093Y061695D01*
X016978Y061743D01*
X016855Y061759D01*
X016731Y061743D01*
X016616Y061695D01*
X016518Y061619D01*
X016442Y061521D01*
X016419Y061464D01*
X016291D01*
X016267Y061521D01*
X016192Y061619D01*
X016093Y061695D01*
X015978Y061743D01*
X015855Y061759D01*
X015731Y061743D01*
X015616Y061695D01*
X015518Y061619D01*
X015442Y061521D01*
X015422Y061474D01*
X015295D01*
X015275Y061521D01*
X015199Y061619D01*
X015101Y061695D01*
X014986Y061743D01*
X014862Y061759D01*
X014739Y061743D01*
X014624Y061695D01*
X014526Y061619D01*
X014481Y061561D01*
X013687D01*
X013605Y06155D01*
X013528Y061518D01*
X013462Y061468D01*
X013412Y061402D01*
X01338Y061325D01*
X013369Y061243D01*
Y050589D01*
X01338Y050507D01*
X013412Y050431D01*
X013462Y050365D01*
X013528Y050314D01*
X013605Y050283D01*
X013687Y050272D01*
X017531D01*
X01758Y050154D01*
X017556Y050118D01*
X017539Y050033D01*
Y049903D01*
X017266D01*
Y049828D01*
X015791D01*
X015709Y049817D01*
X015632Y049785D01*
X015567Y049735D01*
X015516Y049669D01*
X015484Y049592D01*
X015474Y04951D01*
Y048494D01*
X015173D01*
Y046658D01*
X016409D01*
Y047209D01*
X018216D01*
Y046975D01*
X018232Y046891D01*
X01828Y046819D01*
X019716Y045384D01*
Y045028D01*
X01972Y045007D01*
Y044713D01*
X020153D01*
Y044828D01*
X020163D01*
X020247Y044844D01*
X020319Y044892D01*
X020619Y045192D01*
X020667Y045264D01*
X020684Y045348D01*
Y045419D01*
X020698Y045531D01*
X021485D01*
Y046239D01*
X020698D01*
Y046106D01*
X0206D01*
X020515Y046089D01*
X020443Y046041D01*
X020307Y045905D01*
X020259Y045833D01*
X020242Y045748D01*
Y045607D01*
X020124Y045584D01*
X020092Y045631D01*
X018727Y046997D01*
X018776Y047115D01*
X019186Y047115D01*
X019271Y047115D01*
X019686Y047115D01*
X019771Y047115D01*
X020153D01*
Y047258D01*
X021664D01*
Y047174D01*
X022425D01*
X022442Y047157D01*
Y045048D01*
X022459Y044964D01*
X022507Y044892D01*
X022649Y044751D01*
X02272Y044703D01*
X022805Y044686D01*
X022972D01*
Y044552D01*
X023759D01*
Y045261D01*
X023759D01*
Y0453D01*
X023759D01*
Y046009D01*
X023589D01*
Y046429D01*
X023765D01*
X023835Y04634D01*
Y046315D01*
X023827Y046295D01*
Y046201D01*
X023863Y046115D01*
X023929Y046048D01*
X024016Y046012D01*
X02411D01*
X024197Y046048D01*
X024298Y046089D01*
X024351Y046048D01*
X024707Y045692D01*
X024778Y045644D01*
X024863Y045628D01*
X025166D01*
Y045173D01*
X025642D01*
Y044817D01*
X025606Y044755D01*
X025587Y044685D01*
Y044612D01*
X025606Y044542D01*
X025642Y044479D01*
X025694Y044428D01*
X025757Y044392D01*
X025827Y044373D01*
X025899D01*
X025969Y044392D01*
X026032Y044428D01*
X026084Y044479D01*
X02612Y044542D01*
X026139Y044612D01*
Y044685D01*
X02612Y044755D01*
X026084Y044817D01*
Y045283D01*
X026067Y045367D01*
X026019Y045439D01*
X025958Y0455D01*
Y045733D01*
X025941Y045818D01*
X025893Y045889D01*
X025778Y046005D01*
X025706Y046052D01*
X025622Y046069D01*
X024954D01*
X024859Y046165D01*
X024908Y046283D01*
X025934D01*
Y046424D01*
X025941Y046435D01*
X025958Y046519D01*
Y046774D01*
X025941Y046859D01*
X025917Y046894D01*
X02596Y046996D01*
X025977Y047012D01*
X02601D01*
X026097Y047048D01*
X026163Y047115D01*
X026199Y047201D01*
Y047295D01*
X026184Y047333D01*
Y047348D01*
X026167Y047433D01*
X026119Y047505D01*
X025958Y047666D01*
Y047724D01*
X025944Y047794D01*
Y04796D01*
X025584D01*
Y048133D01*
X025567Y048218D01*
X025519Y048289D01*
X025404Y048405D01*
X025332Y048452D01*
X025346Y04857D01*
X025944D01*
Y049043D01*
X025584D01*
Y049364D01*
X025599Y049401D01*
Y049495D01*
X025563Y049582D01*
X025497Y049649D01*
X02541Y049685D01*
X025316D01*
X025229Y049649D01*
X025161Y049655D01*
X025145Y049679D01*
X024719Y050105D01*
X024647Y050152D01*
X024641Y050154D01*
X024653Y050272D01*
X030473D01*
X030485Y050154D01*
X030478Y050152D01*
X030407Y050105D01*
X030066Y049764D01*
X030018Y049692D01*
X030001Y049607D01*
Y049578D01*
X029986D01*
Y049145D01*
X030201D01*
X030222Y049141D01*
X030243Y049145D01*
X030458D01*
Y049531D01*
X030654Y049728D01*
X034772D01*
X035242Y049257D01*
Y049065D01*
X035226Y049059D01*
X035136Y048989D01*
X035066Y048899D01*
X035023Y048793D01*
X035008Y04868D01*
Y048523D01*
X035023Y04841D01*
X035066Y048304D01*
X035136Y048214D01*
X035226Y048145D01*
X035332Y048101D01*
X035445Y048086D01*
X035558Y048101D01*
X035663Y048145D01*
X035754Y048214D01*
X035823Y048304D01*
X035867Y04841D01*
X035882Y048523D01*
Y04868D01*
X035867Y048793D01*
X035823Y048899D01*
X035754Y048989D01*
X035684Y049043D01*
Y049348D01*
X035667Y049433D01*
X035619Y049505D01*
X035019Y050105D01*
X034947Y050152D01*
X034941Y050154D01*
X034953Y050272D01*
X038804D01*
Y049639D01*
X038669D01*
Y049504D01*
X037029D01*
X036947Y049493D01*
X03687Y049461D01*
X036805Y049411D01*
X036503Y049109D01*
X036445Y049117D01*
X036332Y049102D01*
X036226Y049059D01*
X036136Y048989D01*
X036066Y048899D01*
X036023Y048793D01*
X036008Y04868D01*
Y048523D01*
X036023Y04841D01*
X036066Y048304D01*
X036127Y048225D01*
Y046388D01*
X036095Y046346D01*
X036094Y046345D01*
X035464D01*
Y045439D01*
X036685D01*
Y046009D01*
X036688Y04603D01*
Y046061D01*
X03672Y046103D01*
X036752Y04618D01*
X036762Y046262D01*
Y048225D01*
X036823Y048304D01*
X036867Y04841D01*
X036882Y048523D01*
Y048589D01*
X037161Y048868D01*
X038669D01*
Y048733D01*
X039574D01*
Y048801D01*
X040565D01*
X040572Y048686D01*
X040572Y048607D01*
Y047977D01*
X04066D01*
Y047351D01*
X040546Y047237D01*
Y046794D01*
X040768Y046573D01*
X041211D01*
X041432Y046794D01*
Y047237D01*
X041295Y047375D01*
Y047977D01*
X041359D01*
Y048607D01*
X041359Y048686D01*
X041359Y048804D01*
Y049434D01*
X040907D01*
X040887Y049436D01*
X039574D01*
Y049639D01*
X039439D01*
Y050589D01*
X039429Y050672D01*
X039397Y050748D01*
X039346Y050814D01*
X039281Y050865D01*
X039204Y050896D01*
X039122Y050907D01*
X039032D01*
X038998Y050982D01*
X038993Y051025D01*
X039063Y051096D01*
X03912Y051195D01*
X03915Y051305D01*
Y051419D01*
X03912Y051529D01*
X039063Y051628D01*
X038984Y051707D01*
Y052148D01*
X038967Y052233D01*
X038919Y052305D01*
X03869Y052533D01*
Y052875D01*
X038804D01*
Y054135D01*
X038135D01*
Y052875D01*
X038249D01*
Y052442D01*
X038265Y052358D01*
X038313Y052286D01*
X038542Y052057D01*
Y051761D01*
X038451Y051708D01*
X03837Y051628D01*
X038313Y051529D01*
X038284Y051419D01*
Y051305D01*
X038313Y051195D01*
X03837Y051096D01*
X038441Y051025D01*
X038436Y050982D01*
X038402Y050907D01*
X038032D01*
X037998Y050982D01*
X037993Y051025D01*
X038063Y051096D01*
X03812Y051195D01*
X03815Y051305D01*
Y051419D01*
X03812Y051529D01*
X038063Y051628D01*
X037983Y051708D01*
X03792Y051744D01*
Y052875D01*
X038017D01*
Y054135D01*
X037347D01*
Y052875D01*
X037479D01*
Y051724D01*
X037451Y051708D01*
X03737Y051628D01*
X037313Y051529D01*
X037284Y051419D01*
Y051305D01*
X037313Y051195D01*
X03737Y051096D01*
X037441Y051025D01*
X037436Y050982D01*
X037402Y050907D01*
X037032D01*
X036998Y050982D01*
X036993Y051025D01*
X037063Y051096D01*
X03712Y051195D01*
X03715Y051305D01*
Y051419D01*
X03712Y051529D01*
X037097Y05157D01*
X037099Y051572D01*
X037115Y051657D01*
Y052875D01*
X037229D01*
Y054135D01*
X03656D01*
Y052875D01*
X036674D01*
Y051795D01*
X03666D01*
X03655Y051765D01*
X036451Y051708D01*
X03637Y051628D01*
X036313Y051529D01*
X036284Y051419D01*
Y051305D01*
X036313Y051195D01*
X03637Y051096D01*
X036441Y051025D01*
X036436Y050982D01*
X036402Y050907D01*
X032337D01*
X032275Y05102D01*
X032323Y051135D01*
X032339Y051259D01*
Y051337D01*
X032323Y051461D01*
X032275Y051576D01*
X032199Y051674D01*
X032101Y05175D01*
X032083Y051757D01*
Y052957D01*
X03236Y053233D01*
X032397Y053248D01*
X032463Y053315D01*
X032499Y053401D01*
Y053495D01*
X032463Y053582D01*
X032397Y053649D01*
X03231Y053685D01*
X032216D01*
X032129Y053649D01*
X032063Y053582D01*
X032047Y053545D01*
X031706Y053204D01*
X031659Y053133D01*
X031642Y053048D01*
Y051757D01*
X031624Y05175D01*
X031526Y051674D01*
X03145Y051576D01*
X031426Y051519D01*
X031299D01*
X031275Y051576D01*
X031199Y051674D01*
X031101Y05175D01*
X031084Y051757D01*
Y052248D01*
X031067Y052333D01*
X031019Y052405D01*
X029519Y053905D01*
X029447Y053952D01*
X029363Y053969D01*
X028713D01*
X028694Y054002D01*
X028617Y054079D01*
X028523Y054134D01*
X028417Y054162D01*
X028309D01*
X028203Y054134D01*
X028109Y054079D01*
X028032Y054002D01*
X027978Y053908D01*
X02795Y053803D01*
Y053694D01*
X027978Y053589D01*
X028032Y053495D01*
X028109Y053418D01*
X028203Y053363D01*
X028309Y053335D01*
X028417D01*
X028523Y053363D01*
X028617Y053418D01*
X028694Y053495D01*
X028713Y053528D01*
X029272D01*
X030642Y052157D01*
Y051758D01*
X030624Y05175D01*
X030526Y051674D01*
X03045Y051576D01*
X030426Y051519D01*
X030299D01*
X030275Y051576D01*
X030199Y051674D01*
X030101Y05175D01*
X029986Y051798D01*
X029862Y051814D01*
X029739Y051798D01*
X029624Y05175D01*
X029526Y051674D01*
X02945Y051576D01*
X029426Y051519D01*
X029299D01*
X029275Y051576D01*
X029199Y051674D01*
X029101Y05175D01*
X028986Y051798D01*
X028862Y051814D01*
X028739Y051798D01*
X028624Y05175D01*
X028526Y051674D01*
X02845Y051576D01*
X028426Y051519D01*
X028299D01*
X028275Y051576D01*
X028199Y051674D01*
X028101Y05175D01*
X028084Y051757D01*
Y052148D01*
X028067Y052233D01*
X028019Y052305D01*
X027584Y05274D01*
Y053335D01*
X027776D01*
Y054162D01*
X02695D01*
Y053335D01*
X027142D01*
Y052648D01*
X027159Y052564D01*
X027207Y052492D01*
X027642Y052057D01*
Y051758D01*
X027624Y05175D01*
X027526Y051674D01*
X02745Y051576D01*
X027402Y051461D01*
X027386Y051337D01*
Y051259D01*
X027402Y051135D01*
X02745Y05102D01*
X027388Y050907D01*
X026337D01*
X026275Y05102D01*
X026323Y051135D01*
X026339Y051259D01*
Y051337D01*
X026323Y051461D01*
X026275Y051576D01*
X026199Y051674D01*
X026101Y05175D01*
X026083Y051757D01*
Y052256D01*
X02646Y052633D01*
X026497Y052648D01*
X026563Y052715D01*
X026599Y052801D01*
Y052895D01*
X026563Y052982D01*
X026497Y053049D01*
X02641Y053085D01*
X026316D01*
X026229Y053049D01*
X026163Y052982D01*
X026147Y052945D01*
X025706Y052504D01*
X025659Y052432D01*
X025642Y052348D01*
Y051757D01*
X025624Y05175D01*
X025526Y051674D01*
X02545Y051576D01*
X025426Y051519D01*
X025299D01*
X025275Y051576D01*
X025199Y051674D01*
X025101Y05175D01*
X025083Y051757D01*
Y052056D01*
X02526Y052233D01*
X025297Y052248D01*
X025363Y052315D01*
X025399Y052401D01*
Y052495D01*
X025363Y052582D01*
X025297Y052649D01*
X02521Y052685D01*
X025116D01*
X025029Y052649D01*
X024963Y052582D01*
X024947Y052545D01*
X024706Y052304D01*
X024659Y052232D01*
X024642Y052148D01*
Y051757D01*
X024624Y05175D01*
X024526Y051674D01*
X02445Y051576D01*
X024426Y051519D01*
X024299D01*
X024275Y051576D01*
X024199Y051674D01*
X024101Y05175D01*
X023986Y051798D01*
X023862Y051814D01*
X023739Y051798D01*
X023624Y05175D01*
X023526Y051674D01*
X02345Y051576D01*
X023426Y051519D01*
X023299D01*
X023275Y051576D01*
X023199Y051674D01*
X023101Y05175D01*
X023083Y051757D01*
Y052749D01*
X02308Y052764D01*
Y053366D01*
X022246D01*
Y052531D01*
X022642D01*
Y051757D01*
X022624Y05175D01*
X022526Y051674D01*
X02245Y051576D01*
X022426Y051519D01*
X022299D01*
X022275Y051576D01*
X022199Y051674D01*
X022101Y05175D01*
X022084Y051757D01*
Y053728D01*
X022309D01*
X022329Y053692D01*
X022407Y053614D01*
X022502Y05356D01*
X022608Y053531D01*
X022718D01*
X022824Y05356D01*
X022919Y053614D01*
X022997Y053692D01*
X023052Y053787D01*
X02308Y053893D01*
Y054003D01*
X023052Y05411D01*
X022997Y054205D01*
X022919Y054282D01*
X022824Y054337D01*
X022718Y054366D01*
X022608D01*
X022502Y054337D01*
X022407Y054282D01*
X022329Y054205D01*
X022309Y054169D01*
X021978D01*
X021894Y054152D01*
X021822Y054105D01*
X021707Y053989D01*
X021659Y053918D01*
X021642Y053833D01*
Y051758D01*
X021624Y05175D01*
X021526Y051674D01*
X02145Y051576D01*
X021426Y051519D01*
X021299D01*
X021275Y051576D01*
X021199Y051674D01*
X021101Y05175D01*
X021084Y051757D01*
Y057764D01*
X021099Y057801D01*
Y057895D01*
X021063Y057982D01*
X020997Y058049D01*
X02091Y058085D01*
X020816D01*
X020729Y058049D01*
X020663Y057982D01*
X020627Y057895D01*
Y057801D01*
X020642Y057765D01*
Y051757D01*
X020624Y05175D01*
X020526Y051674D01*
X02045Y051576D01*
X020426Y051519D01*
X020299D01*
X020275Y051576D01*
X020199Y051674D01*
X020101Y05175D01*
X019986Y051798D01*
X019862Y051814D01*
X019739Y051798D01*
X019624Y05175D01*
X019526Y051674D01*
X01945Y051576D01*
X019426Y051519D01*
X019299D01*
X019275Y051576D01*
X019199Y051674D01*
X019101Y05175D01*
X018986Y051798D01*
X018862Y051814D01*
X018739Y051798D01*
X018624Y05175D01*
X018526Y051674D01*
X01845Y051576D01*
X018426Y051519D01*
X018299D01*
X018275Y051576D01*
X018199Y051674D01*
X018101Y05175D01*
X018083Y051757D01*
Y056456D01*
X01836Y056733D01*
X018397Y056748D01*
X018463Y056815D01*
X018499Y056901D01*
Y056995D01*
X018463Y057082D01*
X018397Y057149D01*
X01831Y057185D01*
X018216D01*
X018129Y057149D01*
X018063Y057082D01*
X018047Y057045D01*
X017706Y056704D01*
X017658Y056632D01*
X017642Y056548D01*
Y051757D01*
X017624Y05175D01*
X017526Y051674D01*
X01745Y051576D01*
X017426Y051519D01*
X017299D01*
X017275Y051576D01*
X017199Y051674D01*
X017101Y05175D01*
X016986Y051798D01*
X016862Y051814D01*
X016739Y051798D01*
X016624Y05175D01*
X016526Y051674D01*
X01645Y051576D01*
X016426Y051519D01*
X016299D01*
X016275Y051576D01*
X016199Y051674D01*
X016101Y05175D01*
X015986Y051798D01*
X015862Y051814D01*
X015739Y051798D01*
X015624Y05175D01*
X015526Y051674D01*
X01545Y051576D01*
X015426Y051519D01*
X015299D01*
X015275Y051576D01*
X015199Y051674D01*
X015101Y05175D01*
X014986Y051798D01*
X014862Y051814D01*
X014739Y051798D01*
X014624Y05175D01*
X014526Y051674D01*
X01445Y051576D01*
X014402Y051461D01*
X014386Y051337D01*
Y051259D01*
X014402Y051135D01*
X01445Y05102D01*
X014388Y050907D01*
X014005D01*
Y060925D01*
X014481D01*
X014526Y060867D01*
X014624Y060791D01*
X014739Y060743D01*
X014862Y060727D01*
X014986Y060743D01*
X015101Y060791D01*
X015199Y060867D01*
X015275Y060965D01*
X015295Y061012D01*
X015422D01*
X015442Y060965D01*
X015518Y060867D01*
X015616Y060791D01*
X015731Y060743D01*
X015855Y060727D01*
X015978Y060743D01*
X016093Y060791D01*
X016192Y060867D01*
X016267Y060965D01*
X016291Y061022D01*
X016419D01*
X016442Y060965D01*
X016518Y060867D01*
X016616Y060791D01*
X016731Y060743D01*
X016855Y060727D01*
X016978Y060743D01*
X017093Y060791D01*
X017192Y060867D01*
X017267Y060965D01*
X017291Y061022D01*
X017419D01*
X017442Y060965D01*
X017518Y060867D01*
X017616Y060791D01*
X017731Y060743D01*
X017855Y060727D01*
X017978Y060743D01*
X018093Y060791D01*
X018192Y060867D01*
X018267Y060965D01*
X018291Y061022D01*
X018419D01*
X018442Y060965D01*
X018518Y060867D01*
X018616Y060791D01*
X018731Y060743D01*
X018855Y060727D01*
X018978Y060743D01*
X019093Y060791D01*
X019192Y060867D01*
X019267Y060965D01*
X019315Y06108D01*
X019331Y061204D01*
Y061282D01*
X019315Y061406D01*
X019267Y061521D01*
X019192Y061619D01*
X019176Y061632D01*
X019168Y061749D01*
X019185Y061767D01*
X019211Y061784D01*
X020254Y062828D01*
X021463D01*
X021547Y062844D01*
X021619Y062892D01*
X022519Y063792D01*
X022567Y063864D01*
X022584Y063948D01*
Y064408D01*
X022665Y064455D01*
X022757Y064546D01*
X022822Y064658D01*
X022855Y064784D01*
Y064913D01*
X022822Y065038D01*
X022757Y065151D01*
X022665Y065242D01*
X022553Y065307D01*
X022428Y065341D01*
D02*
G37*
G36*
X030028D02*
X029898D01*
X029773Y065307D01*
X029661Y065242D01*
X029569Y065151D01*
X029528Y065079D01*
X029522Y065077D01*
X029404D01*
X029398Y065079D01*
X029357Y065151D01*
X029265Y065242D01*
X029153Y065307D01*
X029028Y065341D01*
X028898D01*
X028773Y065307D01*
X028661Y065242D01*
X028569Y065151D01*
X028504Y065038D01*
X028471Y064913D01*
Y064784D01*
X028504Y064658D01*
X028569Y064546D01*
X028661Y064455D01*
X028773Y06439D01*
X028898Y064356D01*
X029028D01*
X029153Y06439D01*
X029265Y064455D01*
X029357Y064546D01*
X029398Y064618D01*
X029404Y06462D01*
X029522D01*
X029528Y064618D01*
X029569Y064546D01*
X029661Y064455D01*
X029773Y06439D01*
X029898Y064356D01*
X030028D01*
X030153Y06439D01*
X030265Y064455D01*
X030357Y064546D01*
X030422Y064658D01*
X030455Y064784D01*
Y064913D01*
X030422Y065038D01*
X030357Y065151D01*
X030265Y065242D01*
X030153Y065307D01*
X030028Y065341D01*
D02*
G37*
G36*
X032628D02*
X032498D01*
X032373Y065307D01*
X032261Y065242D01*
X032169Y065151D01*
X032104Y065038D01*
X032071Y064913D01*
Y064784D01*
X032104Y064658D01*
X032169Y064546D01*
X032261Y064455D01*
X032373Y06439D01*
X032498Y064356D01*
X032628D01*
X032753Y06439D01*
X032865Y064455D01*
X032957Y064546D01*
X033022Y064658D01*
X033055Y064784D01*
Y064913D01*
X033022Y065038D01*
X032957Y065151D01*
X032865Y065242D01*
X032753Y065307D01*
X032628Y065341D01*
D02*
G37*
G36*
X027896Y056182D02*
X02703D01*
Y055315D01*
X027896D01*
Y056182D01*
D02*
G37*
G36*
X041166Y054135D02*
X040497D01*
Y052875D01*
X040611D01*
Y05278D01*
X040628Y052695D01*
X040675Y052624D01*
X041419Y051881D01*
Y051676D01*
X04137Y051628D01*
X041313Y051529D01*
X041284Y051419D01*
Y051305D01*
X041313Y051195D01*
X04137Y051096D01*
X041451Y051015D01*
X04155Y050958D01*
X04166Y050929D01*
X041774D01*
X041884Y050958D01*
X041983Y051015D01*
X042063Y051096D01*
X04212Y051195D01*
X04215Y051305D01*
Y051419D01*
X04212Y051529D01*
X042063Y051628D01*
X041983Y051708D01*
X041884Y051765D01*
X04186Y051772D01*
Y051972D01*
X041843Y052057D01*
X041795Y052128D01*
X041167Y052757D01*
X041166Y052875D01*
X041166D01*
Y054135D01*
D02*
G37*
G36*
X040379D02*
X03971D01*
Y052875D01*
X039823D01*
Y052767D01*
X03984Y052683D01*
X039888Y052611D01*
X040496Y052003D01*
Y051734D01*
X040451Y051708D01*
X04037Y051628D01*
X040313Y051529D01*
X040284Y051419D01*
Y051305D01*
X040313Y051195D01*
X04037Y051096D01*
X040451Y051015D01*
X04055Y050958D01*
X04066Y050929D01*
X040774D01*
X040884Y050958D01*
X040983Y051015D01*
X041063Y051096D01*
X04112Y051195D01*
X04115Y051305D01*
Y051419D01*
X04112Y051529D01*
X041063Y051628D01*
X040983Y051708D01*
X040938Y051734D01*
Y052095D01*
X040921Y052179D01*
X040873Y052251D01*
X040367Y052757D01*
X040379Y052875D01*
X040379D01*
Y054135D01*
D02*
G37*
G36*
X039591D02*
X038922D01*
Y052875D01*
X039036D01*
Y052455D01*
X039053Y05237D01*
X039101Y052299D01*
X039496Y051903D01*
Y051734D01*
X039451Y051708D01*
X03937Y051628D01*
X039313Y051529D01*
X039284Y051419D01*
Y051305D01*
X039313Y051195D01*
X03937Y051096D01*
X039451Y051015D01*
X03955Y050958D01*
X03966Y050929D01*
X039774D01*
X039884Y050958D01*
X039983Y051015D01*
X040063Y051096D01*
X04012Y051195D01*
X04015Y051305D01*
Y051419D01*
X04012Y051529D01*
X040063Y051628D01*
X039983Y051708D01*
X039938Y051734D01*
Y051995D01*
X039921Y052079D01*
X039873Y052151D01*
X039478Y052546D01*
Y052875D01*
X039591D01*
Y054135D01*
D02*
G37*
G36*
X034445Y049117D02*
X034332Y049102D01*
X034226Y049059D01*
X034136Y048989D01*
X034066Y048899D01*
X034063Y048891D01*
X032318D01*
Y048899D01*
X03153Y048899D01*
X031412Y048858D01*
X031409Y04886D01*
X031363Y048869D01*
X030063D01*
X030017Y04886D01*
X029978Y048834D01*
X029952Y048795D01*
X029943Y048748D01*
Y048448D01*
X029952Y048402D01*
X029978Y048363D01*
X030017Y048337D01*
X030063Y048328D01*
X030743D01*
Y047148D01*
X030752Y047102D01*
X030778Y047063D01*
X030794Y047053D01*
Y044988D01*
X031246Y044535D01*
X032152D01*
X032605Y044988D01*
Y045574D01*
X03389D01*
Y045439D01*
X03511D01*
Y046345D01*
X03389D01*
Y04621D01*
X032605D01*
Y047193D01*
X032152Y047645D01*
X031483D01*
Y048091D01*
X03153Y04819D01*
X031602Y04819D01*
X032318D01*
Y048255D01*
X034104D01*
X034136Y048214D01*
X034226Y048145D01*
X034332Y048101D01*
X034445Y048086D01*
X034558Y048101D01*
X034663Y048145D01*
X034754Y048214D01*
X034823Y048304D01*
X034867Y04841D01*
X034882Y048523D01*
Y04868D01*
X034867Y048793D01*
X034823Y048899D01*
X034754Y048989D01*
X034663Y049059D01*
X034558Y049102D01*
X034445Y049117D01*
D02*
G37*
G36*
X027973Y049925D02*
X027068D01*
Y049789D01*
X026601D01*
X026519Y049779D01*
X026442Y049747D01*
X026376Y049696D01*
X026356Y049676D01*
X026305Y04961D01*
X026274Y049533D01*
X026263Y049451D01*
X026274Y049369D01*
X026305Y049292D01*
X026356Y049227D01*
X026422Y049176D01*
X026498Y049144D01*
X02658Y049134D01*
X026663Y049144D01*
X026686Y049154D01*
X027068D01*
Y049019D01*
X027973D01*
Y049141D01*
X028389D01*
X028434Y049032D01*
X028307Y048905D01*
X028259Y048833D01*
X028242Y048748D01*
Y047602D01*
X028259Y047518D01*
X028307Y047446D01*
X028427Y047326D01*
X028294Y047193D01*
Y044988D01*
X028746Y044535D01*
X029652D01*
X030105Y044988D01*
Y047193D01*
X029652Y047645D01*
X028746D01*
X028684Y047737D01*
Y048533D01*
X028687Y048535D01*
X028805Y048472D01*
Y048397D01*
X029277D01*
Y048771D01*
Y049145D01*
Y049578D01*
X029062D01*
X029041Y049583D01*
X027973D01*
Y049925D01*
D02*
G37*
G36*
X043463Y056021D02*
X037209D01*
X037127Y05601D01*
X03705Y055978D01*
X036984Y055928D01*
X036934Y055862D01*
X036902Y055786D01*
X036891Y055703D01*
X036902Y055621D01*
X036934Y055544D01*
X036984Y055479D01*
X03705Y055428D01*
X037127Y055396D01*
X037209Y055386D01*
X043145D01*
Y044966D01*
X042881D01*
Y045716D01*
X042904Y045756D01*
X042931Y045856D01*
Y04596D01*
X042904Y04606D01*
X042852Y04615D01*
X042779Y046223D01*
X042689Y046275D01*
X042589Y046302D01*
X042485D01*
X042385Y046275D01*
X042295Y046223D01*
X042222Y04615D01*
X04217Y04606D01*
X042144Y04596D01*
Y045856D01*
X04217Y045756D01*
X042222Y045666D01*
X042245Y045643D01*
Y044966D01*
X041908D01*
X041823Y045015D01*
X041723Y045042D01*
X041619D01*
X041519Y045015D01*
X041429Y044963D01*
X041356Y04489D01*
X041304Y0448D01*
X041277Y0447D01*
Y044597D01*
X041304Y044496D01*
X041356Y044407D01*
X041429Y044333D01*
X041519Y044282D01*
X041619Y044255D01*
X041723D01*
X041823Y044282D01*
X041908Y044331D01*
X043463D01*
X043545Y044342D01*
X043622Y044373D01*
X043688Y044424D01*
X043738Y04449D01*
X04377Y044566D01*
X043781Y044648D01*
Y055703D01*
X04377Y055786D01*
X043738Y055862D01*
X043688Y055928D01*
X043622Y055978D01*
X043545Y05601D01*
X043463Y056021D01*
D02*
G37*
G36*
X017473Y046242D02*
X016686D01*
Y045533D01*
X017473D01*
Y045666D01*
X018633D01*
X018716Y045584D01*
Y045028D01*
X01872Y045007D01*
Y044713D01*
X019153D01*
Y045007D01*
X019157Y045028D01*
Y045675D01*
X01914Y04576D01*
X019092Y045831D01*
X01888Y046043D01*
X018809Y046091D01*
X018724Y046108D01*
X017473D01*
Y046242D01*
D02*
G37*
G36*
X037707Y045042D02*
X037603D01*
X037503Y045015D01*
X037413Y044963D01*
X03734Y04489D01*
X037288Y0448D01*
X037261Y0447D01*
Y044597D01*
X037288Y044496D01*
X037337Y044411D01*
Y042266D01*
X014537D01*
X01452Y042283D01*
X014424Y042338D01*
X014318Y042367D01*
X014208D01*
X014102Y042338D01*
X014006Y042283D01*
X013928Y042205D01*
X013873Y04211D01*
X013845Y042003D01*
Y041893D01*
X013873Y041787D01*
X013928Y041692D01*
X014006Y041614D01*
X014102Y041559D01*
X014208Y04153D01*
X014318D01*
X014424Y041559D01*
X01452Y041614D01*
X014537Y041631D01*
X037655D01*
X037737Y041642D01*
X037814Y041673D01*
X03788Y041724D01*
X03793Y04179D01*
X037962Y041866D01*
X037973Y041948D01*
Y044411D01*
X038022Y044496D01*
X038049Y044597D01*
Y0447D01*
X038022Y0448D01*
X03797Y04489D01*
X037897Y044963D01*
X037807Y045015D01*
X037707Y045042D01*
D02*
G37*
G36*
X025863Y041166D02*
X025781Y041155D01*
X025704Y041124D01*
X025638Y041073D01*
X025588Y041007D01*
X025556Y040931D01*
X025545Y040848D01*
Y039767D01*
X025556Y039685D01*
X025588Y039608D01*
X025638Y039543D01*
X025704Y039492D01*
X025781Y03946D01*
X025863Y03945D01*
X042146D01*
Y039059D01*
X043563D01*
Y040476D01*
X042146D01*
Y040085D01*
X026181D01*
Y040848D01*
X02617Y040931D01*
X026138Y041007D01*
X026088Y041073D01*
X026022Y041124D01*
X025945Y041155D01*
X025863Y041166D01*
D02*
G37*
G36*
X012607Y038919D02*
X012503D01*
X012403Y038892D01*
X012313Y03884D01*
X01224Y038767D01*
X012188Y038677D01*
X012161Y038577D01*
Y038473D01*
X012188Y038373D01*
X01224Y038283D01*
X012313Y03821D01*
X012403Y038158D01*
X01247Y03814D01*
Y038018D01*
X012411Y038002D01*
X012321Y03795D01*
X012248Y037877D01*
X012196Y037787D01*
X012169Y037687D01*
Y037583D01*
X012196Y037483D01*
X012248Y037393D01*
X012321Y03732D01*
X012345Y037307D01*
Y03717D01*
X012321Y037157D01*
X012248Y037083D01*
X012196Y036994D01*
X012169Y036894D01*
Y03679D01*
X012196Y03669D01*
X012248Y0366D01*
X012321Y036527D01*
X012344Y036513D01*
Y036377D01*
X012321Y036363D01*
X012248Y03629D01*
X012196Y0362D01*
X012169Y0361D01*
Y035997D01*
X012196Y035896D01*
X012248Y035807D01*
X012321Y035733D01*
X012411Y035682D01*
X012411Y035681D01*
Y035559D01*
X012403Y035557D01*
X012313Y035505D01*
X01224Y035432D01*
X012188Y035342D01*
X012161Y035242D01*
Y035138D01*
X012188Y035038D01*
X01224Y034948D01*
X012313Y034875D01*
X012403Y034823D01*
X012503Y034796D01*
X012607D01*
X012707Y034823D01*
X012797Y034875D01*
X01287Y034948D01*
X012922Y035038D01*
X012949Y035138D01*
Y035242D01*
X012922Y035342D01*
X01287Y035432D01*
X012797Y035505D01*
X012707Y035557D01*
X012707Y035557D01*
Y035679D01*
X012715Y035682D01*
X012805Y035733D01*
X012878Y035807D01*
X01293Y035896D01*
X012957Y035997D01*
Y0361D01*
X01293Y0362D01*
X012878Y03629D01*
X012805Y036363D01*
X012781Y036377D01*
Y036513D01*
X012805Y036527D01*
X012878Y0366D01*
X01293Y03669D01*
X012957Y03679D01*
Y036894D01*
X01293Y036994D01*
X012878Y037083D01*
X012805Y037157D01*
X012781Y03717D01*
Y037307D01*
X012805Y03732D01*
X012878Y037393D01*
X01293Y037483D01*
X012957Y037583D01*
Y037687D01*
X01293Y037787D01*
X012878Y037877D01*
X012805Y03795D01*
X012715Y038002D01*
X012648Y03802D01*
Y038142D01*
X012707Y038158D01*
X012797Y03821D01*
X01287Y038283D01*
X012922Y038373D01*
X012949Y038473D01*
Y038577D01*
X012922Y038677D01*
X01287Y038767D01*
X012797Y03884D01*
X012707Y038892D01*
X012607Y038919D01*
D02*
G37*
G36*
X043563Y032838D02*
X042146D01*
Y031421D01*
X043563D01*
Y032838D01*
D02*
G37*
G36*
X01498Y040515D02*
X013563D01*
Y039098D01*
X013954D01*
Y032799D01*
X013563D01*
Y031381D01*
X01498D01*
Y032799D01*
X014589D01*
Y039098D01*
X01498D01*
Y040515D01*
D02*
G37*
%LPD*%
G36*
X024768Y049431D02*
Y048806D01*
X024782Y048736D01*
Y04857D01*
X024782D01*
X024741Y048469D01*
X024587D01*
X024351Y048705D01*
X02428Y048753D01*
X024195Y048769D01*
X023744D01*
Y048903D01*
X022957D01*
Y048402D01*
X022838Y048343D01*
X022784Y048385D01*
Y049557D01*
X022954Y049728D01*
X024472D01*
X024768Y049431D01*
D02*
G37*
G36*
X031363Y047148D02*
X030863D01*
Y048448D01*
X030063D01*
Y048548D01*
Y048748D01*
X031363D01*
Y047148D01*
D02*
G37*
D17*
X042537Y049924D02*
Y051362D01*
X042717D01*
X025737Y045409D02*
X025863Y045283D01*
Y044648D02*
Y045283D01*
X025737Y045409D02*
Y045733D01*
X020862Y051298D02*
X020863Y051298D01*
Y057848D01*
X020863Y057848D01*
X01776Y050033D02*
X017875Y050148D01*
X019559Y049636D02*
Y050033D01*
X01776Y049636D02*
Y050033D01*
X017875Y050148D02*
X019444D01*
X019559Y050033D01*
X017634Y04951D02*
X01776Y049636D01*
X019559D02*
X019685Y04951D01*
X023855Y061243D02*
Y06194D01*
X035563Y064148D02*
Y064848D01*
X034963Y063548D02*
X035563Y064148D01*
X025463Y063548D02*
X034963D01*
X023855Y06194D02*
X025463Y063548D01*
X029863Y064748D02*
X029963Y064848D01*
X022845Y061867D02*
Y06203D01*
X025663Y064848D01*
X022855Y061243D02*
Y061857D01*
X022845Y061867D02*
X022855Y061857D01*
X025663Y064848D02*
X026963D01*
X018855Y061243D02*
Y061748D01*
X019046Y06194D01*
X019055D01*
X020163Y063048D02*
X021463D01*
X019055Y06194D02*
X020163Y063048D01*
X022363Y063948D02*
Y064848D01*
X021463Y063048D02*
X022363Y063948D01*
X021748Y062348D02*
X023363Y063964D01*
X020463Y062348D02*
X021748D01*
X023363Y063964D02*
Y064848D01*
X019855Y061243D02*
Y061748D01*
X019863D01*
X020463Y062348D01*
X028855Y061065D02*
Y061243D01*
X028663Y058648D02*
Y060873D01*
X028855Y061065D01*
X027663Y060873D02*
X027855Y061065D01*
X027663Y058648D02*
Y060873D01*
X027855Y061065D02*
Y061243D01*
X026663Y058648D02*
Y060873D01*
X026855Y061065D01*
Y061243D01*
X025663Y058648D02*
Y060873D01*
X025855Y061065D01*
Y061243D01*
X022663Y052948D02*
X022862Y052749D01*
Y051298D02*
Y052749D01*
X021862Y051298D02*
X021863Y051299D01*
Y053833D01*
X021978Y053948D02*
X022663D01*
X021863Y053833D02*
X021978Y053948D01*
X030862Y051298D02*
X030863Y051299D01*
Y052248D01*
X028363Y053748D02*
X029363D01*
X030863Y052248D01*
X027863Y051299D02*
Y052148D01*
X027862Y051298D02*
X027863Y051299D01*
X027363Y052648D02*
Y053748D01*
Y052648D02*
X027863Y052148D01*
X031863Y051298D02*
Y053048D01*
X032263Y053448D01*
X024862Y052148D02*
X025163Y052448D01*
X024862Y051298D02*
Y052148D01*
X025862Y051298D02*
Y052348D01*
X026363Y052848D01*
X035663Y052765D02*
X036107Y05321D01*
X035663Y051416D02*
Y052765D01*
Y051416D02*
X035717Y051362D01*
X036107Y05321D02*
Y053505D01*
X036895Y051657D02*
Y053505D01*
X036717Y051362D02*
Y051479D01*
X036895Y051657D01*
X037699Y051379D02*
Y053487D01*
Y051379D02*
X037717Y051362D01*
X038469Y052442D02*
Y053505D01*
Y052442D02*
X038763Y052148D01*
Y051408D02*
Y052148D01*
X038717Y051362D02*
X038763Y051408D01*
X037682Y053505D02*
X037699Y053487D01*
X039257Y052455D02*
Y053505D01*
Y052455D02*
X039717Y051995D01*
Y051362D02*
Y051995D01*
X040044Y052767D02*
X040717Y052095D01*
X040044Y052767D02*
Y053505D01*
X032963Y055081D02*
X034052D01*
Y053505D02*
X036107D01*
X034052D02*
Y055081D01*
X032963Y058337D02*
X034044D01*
X032963Y055081D02*
Y058337D01*
X040717Y051362D02*
Y052095D01*
X017862Y056548D02*
X018263Y056948D01*
X017862Y051298D02*
Y056548D01*
X040063Y056748D02*
Y060708D01*
X034052Y056748D02*
Y057589D01*
Y055829D02*
Y056748D01*
X040063D01*
X034044Y057589D02*
X034052D01*
X035717Y06128D02*
Y061362D01*
Y06128D02*
X036107Y060889D01*
Y059528D02*
Y060889D01*
X036906Y05954D02*
Y061055D01*
X036895Y059528D02*
X036906Y05954D01*
X036717Y061245D02*
X036906Y061055D01*
X036717Y061245D02*
Y061362D01*
X037699Y059546D02*
Y061344D01*
X037717Y061362D01*
X037682Y059528D02*
X037699Y059546D01*
X038469Y059528D02*
Y060248D01*
X038463Y060255D02*
X038469Y060248D01*
X038463Y060255D02*
Y061048D01*
X038717Y061302D01*
Y061362D01*
X039257Y060902D02*
X039717Y061362D01*
X039257Y059528D02*
Y060902D01*
X040063Y060708D02*
X040717Y061362D01*
X040832Y060477D02*
X041717Y061362D01*
X040832Y059528D02*
Y060477D01*
X041619Y059528D02*
Y060264D01*
X042717Y061362D01*
X041639Y051439D02*
Y051972D01*
Y051439D02*
X041717Y051362D01*
X040832Y05278D02*
X041639Y051972D01*
X040832Y05278D02*
Y053505D01*
X041619Y05321D02*
X042717Y052112D01*
Y051362D02*
Y052112D01*
X041619Y05321D02*
Y053505D01*
X034863Y049948D02*
X035463Y049348D01*
X030563Y049948D02*
X034863D01*
X030222Y049607D02*
X030563Y049948D01*
X022863D02*
X024563D01*
X024989Y049522D01*
Y048806D02*
Y049522D01*
X022563Y049648D02*
X022863Y049948D01*
X025363Y047724D02*
Y048133D01*
X024495Y048248D02*
X025248D01*
X024195Y048549D02*
X024495Y048248D01*
X025248D02*
X025363Y048133D01*
X025737Y047574D02*
Y047724D01*
Y047574D02*
X025963Y047348D01*
Y047248D02*
Y047348D01*
X02752Y049362D02*
X029041D01*
X018418Y049018D02*
X018563Y049164D01*
X017778Y049018D02*
X018418D01*
X018563Y049164D02*
Y049481D01*
X018534Y04951D02*
X018563Y049481D01*
X017663Y048434D02*
Y048903D01*
X017778Y049018D01*
X017663Y048434D02*
X0177Y048397D01*
X030222Y049362D02*
Y049607D01*
X035463Y04862D02*
Y049348D01*
X035445Y048602D02*
X035463Y04862D01*
X028702Y048988D02*
X029041D01*
X028463Y048748D02*
X028702Y048988D01*
X028463Y047602D02*
X029199Y046866D01*
X028463Y047602D02*
Y048748D01*
X029199Y04609D02*
Y046866D01*
X031063Y04609D02*
Y048614D01*
Y04609D02*
X031699D01*
X030222Y048614D02*
X031063D01*
X031407Y049292D02*
X031924D01*
X031102Y048988D02*
X031407Y049292D01*
X030222Y048988D02*
X031102D01*
X029041D02*
Y049362D01*
X02752D02*
Y049472D01*
X023828Y046784D02*
X024055Y046556D01*
Y046256D02*
Y046556D01*
Y046256D02*
X024063Y046248D01*
X024463D02*
X024863Y045848D01*
X024463Y046248D02*
Y047048D01*
X02398Y047532D02*
X024463Y047048D01*
X024989Y047522D02*
Y047724D01*
Y047522D02*
X025737Y046774D01*
Y046519D02*
Y046774D01*
X024863Y047048D02*
X024872D01*
X024989Y046931D01*
Y046519D02*
Y046931D01*
X023371Y047532D02*
X02398D01*
X023233Y047669D02*
X023371Y047532D01*
Y046784D02*
X023828D01*
X024863Y045848D02*
X025622D01*
X025737Y045733D01*
X024989Y044048D02*
Y045409D01*
X024963Y044048D02*
X024989D01*
X019936Y047479D02*
X022008D01*
X024011Y049297D02*
X024163Y049448D01*
X02335Y049297D02*
X024011D01*
X025363Y048806D02*
Y049448D01*
Y048806D02*
X025363Y048806D01*
X022563Y048248D02*
X023142Y047669D01*
X022563Y048248D02*
Y049648D01*
X023142Y047669D02*
X023233D01*
X02335Y048549D02*
X024195D01*
X022663Y045048D02*
X022805Y044907D01*
X023366D01*
X022663Y045048D02*
Y047248D01*
X022463Y047448D02*
X022663Y047248D01*
X022137Y047448D02*
X022463D01*
X022057Y047528D02*
X022137Y047448D01*
X023368Y046781D02*
X023371Y046784D01*
X023368Y045657D02*
Y046781D01*
X023366Y045655D02*
X023368Y045657D01*
X018724Y045887D02*
X018936Y045675D01*
Y045028D02*
Y045675D01*
X017079Y045887D02*
X018724D01*
X019436Y044075D02*
X019463Y044048D01*
X019436Y044075D02*
Y045028D01*
X018436Y044048D02*
Y045028D01*
X019936Y045048D02*
X020163D01*
X019936D02*
Y045475D01*
X0206Y045885D02*
X021092D01*
X020463Y045748D02*
X0206Y045885D01*
X020463Y045348D02*
Y045748D01*
X020163Y045048D02*
X020463Y045348D01*
X019936Y045028D02*
Y045048D01*
X022008Y047479D02*
X022057Y047528D01*
X019936Y04743D02*
Y047479D01*
X015791Y047576D02*
X015937Y04743D01*
X018436D01*
Y046975D02*
X019936Y045475D01*
X018436Y046975D02*
Y04743D01*
X018936D02*
Y04787D01*
X018448Y048358D02*
Y048397D01*
Y048358D02*
X018936Y04787D01*
X019436Y04743D02*
Y048044D01*
X019748Y048356D02*
Y048395D01*
X019436Y048044D02*
X019748Y048356D01*
X02054Y049465D02*
X020585Y04951D01*
X02054Y04844D02*
Y049465D01*
X020496Y048395D02*
X02054Y04844D01*
D21*
X041619Y059528D02*
D03*
X040832D02*
D03*
X040044D02*
D03*
X039257D02*
D03*
X038469D02*
D03*
X037682D02*
D03*
X036895D02*
D03*
X036107D02*
D03*
Y053505D02*
D03*
X036895D02*
D03*
X037682D02*
D03*
X038469D02*
D03*
X039257D02*
D03*
X040044D02*
D03*
X040832D02*
D03*
X041619D02*
D03*
D22*
X034044Y058337D02*
D03*
Y057589D02*
D03*
X034052Y055081D02*
D03*
Y055829D02*
D03*
X021092Y045137D02*
D03*
Y045885D02*
D03*
X017079Y045139D02*
D03*
Y045887D02*
D03*
X040965Y049079D02*
D03*
Y048331D02*
D03*
X031924Y048544D02*
D03*
Y049292D02*
D03*
X022057Y04678D02*
D03*
Y047528D02*
D03*
X02335Y048549D02*
D03*
Y049297D02*
D03*
X023371Y047532D02*
D03*
Y046784D02*
D03*
X023366Y045655D02*
D03*
Y044907D02*
D03*
D23*
X024989Y048806D02*
D03*
X025363D02*
D03*
X025737D02*
D03*
Y047724D02*
D03*
X025363D02*
D03*
X024989D02*
D03*
D24*
X024989Y045409D02*
D03*
X025363D02*
D03*
X025737D02*
D03*
Y046519D02*
D03*
X025363D02*
D03*
X024989D02*
D03*
D25*
X017634Y04951D02*
D03*
X018534D02*
D03*
X019685D02*
D03*
X020585D02*
D03*
D26*
X018448Y048397D02*
D03*
X0177D02*
D03*
X020496Y048395D02*
D03*
X019748D02*
D03*
D27*
X039122Y047887D02*
D03*
Y049186D02*
D03*
X02752Y048173D02*
D03*
Y049472D02*
D03*
D28*
X0345Y045892D02*
D03*
X036075D02*
D03*
D29*
X030222Y048614D02*
D03*
Y048988D02*
D03*
Y049362D02*
D03*
X029041Y048614D02*
D03*
Y048988D02*
D03*
Y049362D02*
D03*
D30*
X031699Y04609D02*
D03*
X029199D02*
D03*
D31*
X018436Y04743D02*
D03*
X018936D02*
D03*
X019436D02*
D03*
X019936D02*
D03*
Y045028D02*
D03*
X019436D02*
D03*
X018936D02*
D03*
X018436D02*
D03*
D62*
X037655Y041948D02*
Y044648D01*
X014263Y041948D02*
X037655D01*
X042563Y044648D02*
X043463D01*
X041671D02*
X042563D01*
Y045908D01*
X042537D02*
X042563D01*
X043463Y044648D02*
Y055703D01*
X013687Y061243D02*
X014862D01*
X013687Y050589D02*
Y061243D01*
X039122Y049186D02*
Y050589D01*
X013687D02*
X039122D01*
X025863Y039767D02*
Y040848D01*
Y039767D02*
X042854D01*
X037209Y055703D02*
X043463D01*
X033085Y062148D02*
X040486D01*
X040717Y061362D02*
Y061918D01*
X032855Y061243D02*
Y061918D01*
X033085Y062148D01*
X040486D02*
X040717Y061918D01*
X040832Y059528D02*
X041619D01*
X039122Y046016D02*
Y047887D01*
Y046016D02*
X040989D01*
X040965Y048331D02*
X040977Y048319D01*
Y047028D02*
Y048319D01*
Y047028D02*
X040989Y047016D01*
X039189Y049119D02*
X040887D01*
X039122Y049186D02*
X039189Y049119D01*
X040887D02*
X040926Y049079D01*
X037029Y049186D02*
X039122D01*
X036445Y048602D02*
Y048616D01*
X036554Y048726D01*
X036569D01*
X037029Y049186D01*
X014272Y03209D02*
Y039807D01*
X02658Y049451D02*
X026601Y049472D01*
X02752D01*
X040989Y047016D02*
Y047063D01*
X040926Y049079D02*
X040965D01*
X034416Y048573D02*
X034445Y048602D01*
X031924Y048544D02*
X031953Y048573D01*
X034416D01*
X036232Y045892D02*
X03637Y04603D01*
Y046187D01*
X036075Y045892D02*
X036232D01*
X03637Y046187D02*
X036445Y046262D01*
Y048602D01*
X031897Y045892D02*
X0345D01*
X031699Y04609D02*
X031897Y045892D01*
X024989Y044048D02*
X02752D01*
X022057D02*
X024963D01*
X022057D02*
Y04678D01*
X021092Y044048D02*
X022057D01*
X02752D02*
Y048173D01*
X022057Y047528D02*
Y048543D01*
X022063Y048548D01*
X019463Y044048D02*
X021092D01*
X018436D02*
X019463D01*
X017063D02*
X018436D01*
X021092D02*
Y045137D01*
X017063Y044048D02*
Y045139D01*
X017079D01*
X014791Y044048D02*
X017063D01*
X014791D02*
Y045576D01*
X013291D02*
Y047576D01*
Y045576D02*
X014791D01*
X015791Y04951D02*
X017634D01*
X015791Y047576D02*
Y04951D01*
D63*
X042537Y049924D02*
D03*
Y045908D02*
D03*
X041671Y044648D02*
D03*
X037655D02*
D03*
X012563Y036048D02*
D03*
Y036842D02*
D03*
Y037635D02*
D03*
D64*
X042717Y051362D02*
D03*
X041717D02*
D03*
X040717D02*
D03*
X039717D02*
D03*
X038717D02*
D03*
X037717D02*
D03*
X036717D02*
D03*
X035717D02*
D03*
Y061362D02*
D03*
X036717D02*
D03*
X037717D02*
D03*
X038717D02*
D03*
X039717D02*
D03*
X040717D02*
D03*
X041717D02*
D03*
X042717D02*
D03*
D65*
X014263Y041948D02*
D03*
D66*
X014272Y03209D02*
D03*
X042854Y03213D02*
D03*
X014272Y039807D02*
D03*
X042854Y039767D02*
D03*
D67*
X032563Y064848D02*
D03*
X033563D02*
D03*
X034563D02*
D03*
X035563D02*
D03*
D03*
X026963D02*
D03*
X027963D02*
D03*
X028963D02*
D03*
X029963D02*
D03*
D03*
X023363D02*
D03*
X022363D02*
D03*
X021363D02*
D03*
D68*
X032855Y061243D02*
D03*
X031855D02*
D03*
X030855D02*
D03*
X029855D02*
D03*
X028855D02*
D03*
X027855D02*
D03*
X026855D02*
D03*
X025855D02*
D03*
X024855D02*
D03*
X023855D02*
D03*
X022855D02*
D03*
X021855D02*
D03*
X020855D02*
D03*
X019855D02*
D03*
X018855D02*
D03*
X017855D02*
D03*
X016855D02*
D03*
X015855D02*
D03*
X014862D02*
D03*
Y051298D02*
D03*
X015862D02*
D03*
X016862D02*
D03*
X017862D02*
D03*
X018862D02*
D03*
X019862D02*
D03*
X020862D02*
D03*
X021862D02*
D03*
X022862D02*
D03*
X023862D02*
D03*
X024862D02*
D03*
X025862D02*
D03*
X026862D02*
D03*
X027862D02*
D03*
X028862D02*
D03*
X029862D02*
D03*
X030862D02*
D03*
X031862D02*
D03*
X032862D02*
D03*
D69*
X034445Y048602D02*
D03*
X035445D02*
D03*
X036445D02*
D03*
D70*
X028663Y058648D02*
D03*
X027663D02*
D03*
X026663D02*
D03*
X028363Y053748D02*
D03*
D71*
X025663Y058648D02*
D03*
X027363Y053748D02*
D03*
D72*
X027463Y055748D02*
D03*
D73*
X022663Y054948D02*
D03*
Y053948D02*
D03*
D74*
Y052948D02*
D03*
D75*
X040989Y047016D02*
D03*
D76*
Y046016D02*
D03*
D77*
X014791Y045576D02*
D03*
D78*
X013291Y047576D02*
D03*
X015791D02*
D03*
D79*
X025863Y040848D02*
D03*
X037209Y055703D02*
D03*
X025863Y044648D02*
D03*
X02658Y049451D02*
D03*
X022063Y048548D02*
D03*
X024163Y049448D02*
D03*
D80*
X020863Y057848D02*
D03*
X032263Y053448D02*
D03*
X025163Y052448D02*
D03*
X026363Y052848D02*
D03*
X018263Y056948D02*
D03*
X024063Y046248D02*
D03*
X025963Y047248D02*
D03*
X024863Y047048D02*
D03*
X025363Y049448D02*
D03*
M02*
