G04*
G04 #@! TF.GenerationSoftware,Altium Limited,Altium Designer,21.9.2 (33)*
G04*
G04 Layer_Color=32896*
%FSTAX24Y24*%
%MOIN*%
G70*
G04*
G04 #@! TF.SameCoordinates,6E6F4FCF-DDBA-4186-BE1C-5EC4A7FB59E6*
G04*
G04*
G04 #@! TF.FilePolarity,Positive*
G04*
G01*
G75*
%ADD19C,0.0079*%
D19*
X024169Y055221D02*
X024248Y055299D01*
X024406D01*
X024484Y055221D01*
Y054906D01*
X024406Y054827D01*
X024248D01*
X024169Y054906D01*
Y055063D01*
X024327D01*
X024012Y054827D02*
Y055299D01*
X023697Y054827D01*
Y055299D01*
X02354D02*
Y054827D01*
X023304D01*
X023225Y054906D01*
Y055221D01*
X023304Y055299D01*
X02354D01*
X024484Y053727D02*
Y054199D01*
X024248D01*
X024169Y054121D01*
Y053963D01*
X024248Y053885D01*
X024484D01*
X024327D02*
X024169Y053727D01*
X024012Y054199D02*
X023697Y053727D01*
Y054199D02*
X024012Y053727D01*
X02354Y054199D02*
Y053727D01*
X023304D01*
X023225Y053806D01*
Y054121D01*
X023304Y054199D01*
X02354D01*
X024484Y053199D02*
X024169D01*
X024327D01*
Y052727D01*
X024012Y053199D02*
X023697Y052727D01*
Y053199D02*
X024012Y052727D01*
X02354Y053199D02*
Y052727D01*
X023304D01*
X023225Y052806D01*
Y053121D01*
X023304Y053199D01*
X02354D01*
M02*
