G04*
G04 #@! TF.GenerationSoftware,Altium Limited,Altium Designer,21.9.2 (33)*
G04*
G04 Layer_Color=16711935*
%FSTAX24Y24*%
%MOIN*%
G70*
G04*
G04 #@! TF.SameCoordinates,6E6F4FCF-DDBA-4186-BE1C-5EC4A7FB59E6*
G04*
G04*
G04 #@! TF.FilePolarity,Negative*
G04*
G01*
G75*
%ADD43C,0.0631*%
%ADD44C,0.0710*%
%ADD45C,0.0680*%
%ADD46R,0.1261X0.1261*%
%ADD47C,0.0828*%
%ADD48O,0.0789X0.0867*%
%ADD49C,0.0080*%
%ADD50O,0.0710X0.0867*%
%ADD51C,0.0671*%
%ADD52R,0.0671X0.0671*%
%ADD53R,0.0710X0.0710*%
%ADD54C,0.0678*%
%ADD55R,0.0678X0.0678*%
%ADD56P,0.0790X8X292.5*%
%ADD57C,0.0730*%
%ADD58R,0.1680X0.1080*%
%ADD59R,0.1080X0.1680*%
%ADD60C,0.0395*%
%ADD61C,0.0316*%
D43*
X042537Y049924D02*
D03*
Y045908D02*
D03*
X041671Y044648D02*
D03*
X037655D02*
D03*
X012563Y036048D02*
D03*
Y036842D02*
D03*
Y037635D02*
D03*
D44*
X042717Y051362D02*
D03*
X041717D02*
D03*
X040717D02*
D03*
X039717D02*
D03*
X038717D02*
D03*
X037717D02*
D03*
X036717D02*
D03*
X035717D02*
D03*
Y061362D02*
D03*
X036717D02*
D03*
X037717D02*
D03*
X038717D02*
D03*
X039717D02*
D03*
X040717D02*
D03*
X041717D02*
D03*
X042717D02*
D03*
D45*
X014263Y041948D02*
D03*
D46*
X014272Y03209D02*
D03*
X042854Y03213D02*
D03*
X014272Y039807D02*
D03*
X042854Y039767D02*
D03*
D47*
X032563Y064848D02*
D03*
X033563D02*
D03*
X034563D02*
D03*
X035563D02*
D03*
D03*
X026963D02*
D03*
X027963D02*
D03*
X028963D02*
D03*
X029963D02*
D03*
D03*
X023363D02*
D03*
X022363D02*
D03*
X021363D02*
D03*
D48*
X032855Y061243D02*
D03*
X031855D02*
D03*
X030855D02*
D03*
X029855D02*
D03*
X028855D02*
D03*
X027855D02*
D03*
X026855D02*
D03*
X025855D02*
D03*
X024855D02*
D03*
X023855D02*
D03*
X022855D02*
D03*
X021855D02*
D03*
X020855D02*
D03*
X019855D02*
D03*
X018855D02*
D03*
X017855D02*
D03*
X016855D02*
D03*
X015855D02*
D03*
X014862D02*
D03*
Y051298D02*
D03*
X015862D02*
D03*
X016862D02*
D03*
X017862D02*
D03*
X018862D02*
D03*
X019862D02*
D03*
X020862D02*
D03*
X021862D02*
D03*
X022862D02*
D03*
X023862D02*
D03*
X024862D02*
D03*
X025862D02*
D03*
X026862D02*
D03*
X027862D02*
D03*
X028862D02*
D03*
X029862D02*
D03*
X030862D02*
D03*
X031862D02*
D03*
X032862D02*
D03*
D49*
X012555Y03519D02*
D03*
Y038525D02*
D03*
D50*
X034445Y048602D02*
D03*
X035445D02*
D03*
X036445D02*
D03*
D51*
X028663Y058648D02*
D03*
X027663D02*
D03*
X026663D02*
D03*
X028363Y053748D02*
D03*
D52*
X025663Y058648D02*
D03*
X027363Y053748D02*
D03*
D53*
X027463Y055748D02*
D03*
D54*
X022663Y054948D02*
D03*
Y053948D02*
D03*
D55*
Y052948D02*
D03*
D56*
X040989Y047016D02*
D03*
D57*
Y046016D02*
D03*
D58*
X014791Y045576D02*
D03*
D59*
X013291Y047576D02*
D03*
X015791D02*
D03*
D60*
X025863Y040848D02*
D03*
X037209Y055703D02*
D03*
X025863Y044648D02*
D03*
X02658Y049451D02*
D03*
X022063Y048548D02*
D03*
X024163Y049448D02*
D03*
D61*
X020863Y057848D02*
D03*
X032263Y053448D02*
D03*
X025163Y052448D02*
D03*
X026363Y052848D02*
D03*
X018263Y056948D02*
D03*
X024063Y046248D02*
D03*
X025963Y047248D02*
D03*
X024863Y047048D02*
D03*
X025363Y049448D02*
D03*
M02*
