G04*
G04 #@! TF.GenerationSoftware,Altium Limited,Altium Designer,21.9.2 (33)*
G04*
G04 Layer_Color=255*
%FSTAX24Y24*%
%MOIN*%
G70*
G04*
G04 #@! TF.SameCoordinates,6E6F4FCF-DDBA-4186-BE1C-5EC4A7FB59E6*
G04*
G04*
G04 #@! TF.FilePolarity,Positive*
G04*
G01*
G75*
%ADD63C,0.0551*%
%ADD64C,0.0630*%
%ADD65C,0.0600*%
%ADD66R,0.1181X0.1181*%
%ADD67C,0.0748*%
%ADD68O,0.0709X0.0787*%
%ADD69O,0.0630X0.0787*%
%ADD70C,0.0591*%
%ADD71R,0.0591X0.0591*%
%ADD72R,0.0630X0.0630*%
%ADD73C,0.0598*%
%ADD74R,0.0598X0.0598*%
%ADD75P,0.0704X8X292.5*%
%ADD76C,0.0650*%
%ADD77R,0.1600X0.1000*%
%ADD78R,0.1000X0.1600*%
D63*
X042537Y049924D02*
D03*
Y045908D02*
D03*
X041671Y044648D02*
D03*
X037655D02*
D03*
X012563Y036048D02*
D03*
Y036842D02*
D03*
Y037635D02*
D03*
D64*
X042717Y051362D02*
D03*
X041717D02*
D03*
X040717D02*
D03*
X039717D02*
D03*
X038717D02*
D03*
X037717D02*
D03*
X036717D02*
D03*
X035717D02*
D03*
Y061362D02*
D03*
X036717D02*
D03*
X037717D02*
D03*
X038717D02*
D03*
X039717D02*
D03*
X040717D02*
D03*
X041717D02*
D03*
X042717D02*
D03*
D65*
X014263Y041948D02*
D03*
D66*
X014272Y03209D02*
D03*
X042854Y03213D02*
D03*
X014272Y039807D02*
D03*
X042854Y039767D02*
D03*
D67*
X032563Y064848D02*
D03*
X033563D02*
D03*
X034563D02*
D03*
X035563D02*
D03*
D03*
X026963D02*
D03*
X027963D02*
D03*
X028963D02*
D03*
X029963D02*
D03*
D03*
X023363D02*
D03*
X022363D02*
D03*
X021363D02*
D03*
D68*
X032855Y061243D02*
D03*
X031855D02*
D03*
X030855D02*
D03*
X029855D02*
D03*
X028855D02*
D03*
X027855D02*
D03*
X026855D02*
D03*
X025855D02*
D03*
X024855D02*
D03*
X023855D02*
D03*
X022855D02*
D03*
X021855D02*
D03*
X020855D02*
D03*
X019855D02*
D03*
X018855D02*
D03*
X017855D02*
D03*
X016855D02*
D03*
X015855D02*
D03*
X014862D02*
D03*
Y051298D02*
D03*
X015862D02*
D03*
X016862D02*
D03*
X017862D02*
D03*
X018862D02*
D03*
X019862D02*
D03*
X020862D02*
D03*
X021862D02*
D03*
X022862D02*
D03*
X023862D02*
D03*
X024862D02*
D03*
X025862D02*
D03*
X026862D02*
D03*
X027862D02*
D03*
X028862D02*
D03*
X029862D02*
D03*
X030862D02*
D03*
X031862D02*
D03*
X032862D02*
D03*
D69*
X034445Y048602D02*
D03*
X035445D02*
D03*
X036445D02*
D03*
D70*
X028663Y058648D02*
D03*
X027663D02*
D03*
X026663D02*
D03*
X028363Y053748D02*
D03*
D71*
X025663Y058648D02*
D03*
X027363Y053748D02*
D03*
D72*
X027463Y055748D02*
D03*
D73*
X022663Y054948D02*
D03*
Y053948D02*
D03*
D74*
Y052948D02*
D03*
D75*
X040989Y047016D02*
D03*
D76*
Y046016D02*
D03*
D77*
X014791Y045576D02*
D03*
D78*
X013291Y047576D02*
D03*
X015791D02*
D03*
M02*
